<svg width="0" height="0" class="visuallyhidden">
    <symbol id="tables" xmlns="http://www.w3.org/2000/svg" stroke-width="1.5" viewBox="0 0 24 24" fill="none">
        <path d="M5 12V18C5 18 5 21 12 21C19 21 19 18 19 18V12" stroke="currentColor" stroke-width="1.5"></path>
        <path d="M5 6V12C5 12 5 15 12 15C19 15 19 12 19 12V6" stroke="currentColor" stroke-width="1.5"></path>
        <path d="M12 3C19 3 19 6 19 6C19 6 19 9 12 9C5 9 5 6 5 6C5 6 5 3 12 3Z" stroke="currentColor"
            stroke-width="1.5">
        </path>
    </symbol>
    <symbol id="vars" xmlns="http://www.w3.org/2000/svg" viewBox="0 0 24 24" fill="none" stroke="currentColor"
        stroke-width="2" stroke-linecap="round" stroke-linejoin="round"
        class="lucide lucide-book-text-icon lucide-book-text">
        <path d="M4 19.5v-15A2.5 2.5 0 0 1 6.5 2H19a1 1 0 0 1 1 1v18a1 1 0 0 1-1 1H6.5a1 1 0 0 1 0-5H20" />
        <path d="M8 11h8" />
        <path d="M8 7h6" />
    </symbol>
    <symbol id="maps" xmlns="http://www.w3.org/2000/svg" viewBox="0 0 24 24" fill="none" stroke="currentColor"
        stroke-width="2" stroke-linecap="round" stroke-linejoin="round">
        <path d="M15 18H3" />
        <path d="M17 6H3" />
        <path d="M21 12H3" />
    </symbol>
    <symbol id="all" xmlns="http://www.w3.org/2000/svg" viewBox="0 0 24 24" fill="none" stroke="currentColor"
        stroke-width="2" stroke-linecap="round" stroke-linejoin="round">
        <rect width="7" height="7" x="3" y="3" rx="1" />
        <rect width="7" height="7" x="14" y="3" rx="1" />
        <rect width="7" height="7" x="14" y="14" rx="1" />
        <rect width="7" height="7" x="3" y="14" rx="1" />
    </symbol>
</svg>